<svg width="24" height="24" viewBox="0 0 24 24" fill="none" xmlns="http://www.w3.org/2000/svg">
<path d="M13 3C14.1935 3 15.3381 3.47411 16.182 4.31802C17.0259 5.16193 17.5 6.30653 17.5 7.5C17.5 8.69347 17.0259 9.83807 16.182 10.682C15.3381 11.5259 14.1935 12 13 12C11.8065 12 10.6619 11.5259 9.81802 10.682C8.97411 9.83807 8.5 8.69347 8.5 7.5C8.5 6.30653 8.97411 5.16193 9.81802 4.31802C10.6619 3.47411 11.8065 3 13 3ZM13 14.25C17.9725 14.25 22 16.2638 22 18.75V21H4V18.75C4 16.2638 8.0275 14.25 13 14.25Z" fill="black" fill-opacity="0.49"/>
</svg>
