<svg width="30" height="30" viewBox="0 0 30 30" fill="none" xmlns="http://www.w3.org/2000/svg">
<circle cx="15" cy="15" r="14.5" fill="#18988B" stroke="#18988B"/>
<path d="M11.2408 13.5421C12.3808 15.7825 14.2175 17.6192 16.4579 18.7592L18.1996 17.0175C18.4213 16.7958 18.73 16.7325 19.0071 16.8196C19.8938 17.1125 20.8438 17.2708 21.8333 17.2708C22.0433 17.2708 22.2447 17.3542 22.3931 17.5027C22.5416 17.6512 22.625 17.8525 22.625 18.0625V20.8333C22.625 21.0433 22.5416 21.2447 22.3931 21.3931C22.2447 21.5416 22.0433 21.625 21.8333 21.625C18.264 21.625 14.8408 20.2071 12.3169 17.6831C9.79293 15.1592 8.375 11.736 8.375 8.16667C8.375 7.9567 8.45841 7.75534 8.60687 7.60687C8.75534 7.45841 8.9567 7.375 9.16667 7.375H11.9375C12.1475 7.375 12.3488 7.45841 12.4973 7.60687C12.6458 7.75534 12.7292 7.9567 12.7292 8.16667C12.7292 9.15625 12.8875 10.1063 13.1804 10.9929C13.2675 11.27 13.2042 11.5788 12.9825 11.8004L11.2408 13.5421Z" fill="white"/>
</svg>
